<svg width="18" height="22" xmlns="http://www.w3.org/2000/svg">

 <g>
  <title>background</title>
  <rect fill="none" id="canvas_background" height="24" width="20" y="-1" x="-1"/>
 </g>
 <g>
  <title>Layer 1</title>
    <path id="svg_1" fill="#999999"
          d="m2.45781,20.63737c0.06095,0.6704 0.60948,1.158 1.27991,1.158l10.52368,0c0.6704,0 1.219,-0.5079 1.2799,-1.158l1.1784,-12.35216l-15.44022,0l1.17833,12.35216z"/>
  <path transform="rotate(-18.1467, 8.85765, 3.26397)" id="svg_2" fill="#999999" d="m16.57775,2.91921l-5.14,0l0,-0.62029c0,-0.71106 -0.5688,-1.27991 -1.2799,-1.27991l-2.58011,0c-0.71106,0 -1.27991,0.56885 -1.27991,1.27991l0,0.65011l-5.16027,0c-0.71106,0 -1.27991,0.56885 -1.27991,1.27991c0,0.71106 0.56885,1.27991 1.27991,1.27991l15.44019,0c0.7111,0 1.2799,-0.56885 1.2799,-1.27991c0,-0.71106 -0.5688,-1.27991 -1.2799,-1.27991l0,-0.02982z"/>
 </g>
</svg>
